<?xml version="1.0" encoding="UTF-8" standalone="no"?>
<!DOCTYPE svg PUBLIC "-//W3C//DTD SVG 1.1//EN" "http://www.w3.org/Graphics/SVG/1.1/DTD/svg11.dtd">
<svg xmlns="http://www.w3.org/2000/svg" version="1.1" viewBox="0.00 0.00 1024.00 1024.00">
<path fill="#000000" d="
  M 522.45 467.06
  L 522.31 467.78
  L 523.01 468.02
  L 645.13 468.02
  L 645.14 468.02
  L 645.78 467.75
  L 646.03 467.10
  L 645.96 464.73
  L 645.88 461.19
  L 646.06 458.78
  L 646.55 457.04
  L 647.32 455.92
  L 648.70 454.83
  L 650.09 454.04
  L 651.50 453.53
  L 652.92 453.31
  L 652.92 453.31
  L 652.92 453.31
  L 655.10 453.53
  L 657.30 454.41
  L 658.72 455.41
  L 659.76 456.65
  L 659.76 456.65
  L 660.49 458.46
  L 660.92 461.53
  L 660.78 464.53
  L 660.78 464.53
  L 660.16 467.22
  L 660.14 467.30
  L 660.27 467.77
  L 660.71 467.98
  L 669.58 468.05
  L 679.28 467.90
  L 682.17 468.10
  L 684.78 468.85
  L 686.77 470.04
  L 688.13 471.63
  L 689.04 473.95
  L 689.21 475.20
  L 689.15 476.42
  L 688.85 477.73
  L 688.32 478.95
  L 687.58 480.05
  L 686.63 481.01
  L 685.52 481.80
  L 684.26 482.39
  L 682.96 482.73
  L 681.56 482.86
  L 660.12 483.06
  L 659.43 483.30
  L 659.02 483.90
  L 658.37 486.64
  L 657.74 490.47
  L 657.16 493.89
  L 655.34 501.56
  L 653.24 508.99
  L 650.85 516.17
  L 648.18 523.11
  L 645.22 529.80
  L 641.98 536.24
  L 638.45 542.43
  L 634.64 548.38
  L 631.09 553.40
  L 627.40 558.24
  L 623.56 562.89
  L 619.58 567.35
  L 615.44 571.62
  L 611.17 575.70
  L 606.74 579.59
  L 602.17 583.30
  L 602.17 583.30
  L 602.17 583.30
  L 596.63 587.39
  L 590.89 591.23
  L 584.95 594.81
  L 578.81 598.14
  L 572.47 601.20
  L 565.93 604.00
  L 559.19 606.55
  L 552.25 608.84
  L 542.83 611.33
  L 532.80 613.20
  L 523.05 614.35
  L 513.39 614.84
  L 503.80 614.67
  L 494.30 613.84
  L 494.30 613.84
  L 494.30 613.84
  L 494.30 613.84
  L 486.82 612.71
  L 479.40 611.17
  L 472.02 609.21
  L 464.70 606.84
  L 457.61 604.16
  L 450.80 601.23
  L 444.55 598.18
  L 438.88 595.01
  L 431.98 590.66
  L 425.42 586.12
  L 419.14 581.35
  L 413.25 576.41
  L 407.71 571.30
  L 402.60 566.07
  L 397.80 560.62
  L 393.45 555.08
  L 388.86 548.54
  L 384.64 541.83
  L 380.79 534.94
  L 377.31 527.89
  L 377.31 527.89
  L 373.52 518.92
  L 370.30 509.70
  L 367.65 500.21
  L 365.57 490.46
  L 365.13 487.46
  L 364.91 484.51
  L 364.78 483.81
  L 364.46 483.31
  L 364.46 483.31
  L 363.95 483.01
  L 363.23 482.91
  L 341.48 482.98
  L 339.92 482.80
  L 338.64 482.35
  L 337.50 481.67
  L 336.43 480.72
  L 335.56 479.58
  L 334.89 478.30
  L 334.47 476.93
  L 334.30 475.49
  L 334.41 474.05
  L 335.14 471.70
  L 336.32 470.03
  L 337.61 469.10
  L 339.15 468.50
  L 341.07 468.14
  L 343.46 468.02
  L 361.81 468.01
  L 361.81 468.01
  L 362.66 467.65
  L 363.00 466.80
  L 362.96 465.39
  L 362.93 461.52
  L 363.29 458.68
  L 364.08 456.52
  L 364.64 455.72
  L 365.35 455.06
  L 366.72 454.24
  L 368.18 453.67
  L 369.69 453.36
  L 371.21 453.32
  L 372.68 453.54
  L 374.06 454.02
  L 375.21 454.71
  L 376.21 455.63
  L 377.30 457.45
  L 377.80 459.56
  L 378.08 467.04
  L 378.30 467.62
  L 378.86 467.90
  L 384.75 468.23
  L 390.77 468.06
  L 393.81 467.48
  L 397.25 466.13
  L 409.44 460.51
  L 420.19 455.93
  L 422.09 455.01
  L 423.49 453.95
  L 424.72 452.34
  L 425.89 449.88
  L 435.99 424.98
  L 436.79 423.73
  L 437.53 423.12
  L 438.45 422.69
  L 440.47 422.13
  L 442.33 421.92
  L 444.01 422.07
  L 445.53 422.57
  L 445.53 422.57
  L 445.53 422.57
  L 446.84 423.39
  L 447.99 424.54
  L 448.98 426.03
  L 449.82 427.84
  L 458.76 450.63
  L 459.74 452.59
  L 460.88 454.00
  L 462.93 455.42
  L 466.45 456.85
  L 467.46 457.22
  L 478.65 461.64
  L 489.31 466.38
  L 492.63 467.71
  L 495.06 468.15
  L 501.19 468.03
  L 501.84 467.69
  L 502.00 466.97
  L 501.95 466.82
  L 476.65 407.79
  L 476.02 407.13
  L 466.34 403.17
  L 405.02 380.10
  L 403.67 379.51
  L 402.53 378.79
  L 401.60 377.95
  L 400.88 376.98
  L 400.88 376.98
  L 400.54 376.33
  L 400.13 375.00
  L 400.01 373.59
  L 400.18 372.07
  L 400.64 370.59
  L 401.36 369.17
  L 402.32 367.94
  L 403.40 367.01
  L 404.62 366.37
  L 471.67 341.09
  L 475.91 339.16
  L 477.05 338.07
  L 477.98 336.37
  L 505.31 272.60
  L 505.96 271.48
  L 506.90 270.44
  L 508.12 269.48
  L 509.64 268.61
  L 511.22 268.10
  L 512.32 268.05
  L 513.39 268.22
  L 514.52 268.62
  L 515.58 269.21
  L 517.53 270.97
  L 518.87 273.12
  L 545.64 335.12
  L 545.80 335.50
  L 546.98 337.82
  L 547.67 338.62
  L 548.35 339.12
  L 552.60 341.16
  L 619.06 365.93
  L 620.45 366.54
  L 621.62 367.28
  L 622.55 368.14
  L 623.25 369.14
  L 623.25 369.14
  L 623.75 370.35
  L 623.98 371.72
  L 623.95 373.24
  L 623.64 374.90
  L 622.91 376.53
  L 621.54 378.05
  L 619.51 379.44
  L 616.93 380.63
  L 549.26 406.53
  L 548.40 407.05
  L 547.58 407.93
  L 546.79 409.18
  L 546.04 410.80
  L 537.18 432.18
  L 527.69 454.46
  L 525.75 459.45
  L 524.00 463.94
  L 522.45 467.06
  Z
  M 539.33 351.43
  L 538.01 350.75
  L 536.93 349.89
  L 536.06 348.84
  L 535.39 347.62
  L 512.44 295.24
  L 512.34 295.09
  L 511.89 294.96
  L 511.53 295.25
  L 502.01 317.25
  L 491.17 341.71
  L 488.41 347.43
  L 487.51 348.86
  L 486.38 350.03
  L 484.86 351.09
  L 482.91 352.07
  L 479.95 353.26
  L 479.18 353.56
  L 429.11 372.58
  L 428.32 372.98
  L 428.05 373.37
  L 428.32 373.76
  L 429.12 374.14
  L 429.52 374.29
  L 463.56 386.72
  L 484.27 394.81
  L 485.79 395.56
  L 487.09 396.49
  L 488.10 397.51
  L 488.90 398.69
  L 489.15 399.22
  L 506.43 440.28
  L 512.26 453.67
  L 512.59 454.05
  L 512.80 453.59
  L 512.86 453.09
  L 512.96 452.41
  L 513.13 451.91
  L 532.11 406.11
  L 534.81 400.28
  L 536.89 396.51
  L 537.57 395.70
  L 538.48 395.17
  L 595.51 373.87
  L 595.77 373.57
  L 595.67 373.19
  L 595.54 373.10
  L 589.16 370.42
  L 581.37 367.44
  L 558.05 358.70
  L 539.33 351.43
  Z
  M 442.88 498.41
  L 448.34 485.61
  L 449.81 482.93
  L 450.69 481.88
  L 451.74 480.96
  L 453.19 480.08
  L 454.92 479.44
  L 469.71 474.57
  L 469.85 474.20
  L 469.83 474.17
  L 469.04 473.61
  L 454.81 468.19
  L 452.04 467.00
  L 450.13 465.58
  L 448.84 463.92
  L 447.80 461.74
  L 443.04 449.82
  L 442.44 449.34
  L 441.70 449.57
  L 441.53 449.82
  L 436.05 463.04
  L 434.83 465.19
  L 434.07 465.93
  L 433.22 466.46
  L 428.57 468.49
  L 423.84 470.27
  L 421.45 471.06
  L 418.82 472.13
  L 416.70 473.02
  L 416.11 473.46
  L 416.66 473.96
  L 423.74 476.89
  L 433.11 480.19
  L 434.03 480.60
  L 434.79 481.18
  L 434.79 481.18
  L 435.42 481.94
  L 435.88 482.88
  L 439.07 491.24
  L 442.13 498.41
  L 442.51 498.82
  L 442.88 498.41
  Z
  M 450.04 519.02
  L 449.34 520.51
  L 448.47 521.79
  L 447.39 522.92
  L 446.19 523.81
  L 444.87 524.45
  L 443.49 524.81
  L 442.09 524.90
  L 440.70 524.71
  L 439.22 524.14
  L 437.84 523.21
  L 436.68 521.97
  L 435.70 520.39
  L 431.09 510.19
  L 425.89 496.97
  L 424.37 494.08
  L 423.49 493.02
  L 422.74 492.48
  L 403.63 485.24
  L 398.37 483.62
  L 393.95 482.94
  L 386.68 482.80
  L 379.65 483.18
  L 379.21 483.42
  L 379.08 483.91
  L 379.08 483.91
  L 379.08 483.93
  L 380.94 493.26
  L 383.31 502.34
  L 386.18 511.16
  L 389.56 519.74
  L 393.00 527.07
  L 396.86 534.06
  L 401.16 540.71
  L 405.88 547.01
  L 405.88 547.01
  L 410.11 551.96
  L 413.41 555.22
  L 416.94 558.01
  L 420.09 560.01
  L 423.39 561.70
  L 426.91 563.13
  L 430.56 564.25
  L 434.50 565.12
  L 438.55 565.70
  L 442.83 565.99
  L 447.21 566.00
  L 453.32 565.36
  L 462.51 563.55
  L 471.06 561.87
  L 475.88 561.43
  L 479.99 561.68
  L 484.31 562.54
  L 488.53 563.72
  L 488.53 563.72
  L 492.27 565.07
  L 495.92 566.69
  L 499.49 568.57
  L 502.97 570.71
  L 508.60 574.71
  L 510.79 576.47
  L 514.63 580.28
  L 519.58 586.27
  L 520.43 587.34
  L 523.25 591.22
  L 525.69 595.31
  L 527.05 598.01
  L 527.85 598.87
  L 529.00 599.10
  L 533.29 598.50
  L 542.35 596.63
  L 551.44 593.97
  L 560.86 590.43
  L 571.26 585.76
  L 576.86 582.85
  L 582.53 579.43
  L 588.29 575.52
  L 594.12 571.11
  L 597.29 568.38
  L 599.55 565.96
  L 599.77 565.51
  L 599.77 565.07
  L 598.38 558.36
  L 597.11 554.25
  L 595.33 550.79
  L 593.05 547.69
  L 590.23 544.90
  L 587.01 542.54
  L 583.34 540.59
  L 579.40 539.16
  L 575.27 538.27
  L 571.04 537.96
  L 549.55 538.01
  L 546.30 537.95
  L 543.13 537.65
  L 540.03 537.11
  L 536.99 536.34
  L 536.99 536.34
  L 532.74 534.80
  L 528.63 532.77
  L 524.49 530.18
  L 520.72 527.29
  L 517.34 524.11
  L 514.32 520.64
  L 514.32 520.64
  L 514.32 520.64
  L 514.32 520.64
  L 511.81 517.06
  L 509.64 513.22
  L 507.81 509.12
  L 506.32 504.75
  L 505.45 500.08
  L 504.28 491.01
  L 504.25 488.81
  L 504.68 485.95
  L 505.00 484.02
  L 505.00 484.01
  L 504.85 483.48
  L 504.36 483.20
  L 498.16 482.84
  L 490.67 483.01
  L 486.86 483.56
  L 483.03 484.79
  L 472.03 489.06
  L 461.15 492.78
  L 460.72 493.03
  L 460.45 493.42
  L 450.04 519.02
  Z
  M 576.73 523.82
  L 581.28 524.57
  L 585.68 525.82
  L 589.98 527.58
  L 594.04 529.80
  L 597.86 532.49
  L 601.34 535.58
  L 604.39 538.98
  L 607.03 542.71
  L 608.34 545.09
  L 610.02 548.72
  L 612.27 553.47
  L 612.31 553.54
  L 612.64 553.69
  L 612.98 553.54
  L 617.82 547.42
  L 622.28 541.10
  L 626.37 534.60
  L 630.09 527.89
  L 630.09 527.89
  L 633.98 519.77
  L 637.36 511.39
  L 640.22 502.73
  L 642.57 493.81
  L 643.57 488.73
  L 644.08 484.34
  L 644.01 483.84
  L 643.75 483.40
  L 643.35 483.10
  L 642.85 482.98
  L 642.81 482.98
  L 519.96 482.98
  L 519.42 483.19
  L 519.16 483.70
  L 518.81 488.66
  L 518.96 493.53
  L 519.59 498.16
  L 520.73 502.57
  L 522.29 506.57
  L 524.34 510.27
  L 526.78 513.52
  L 529.69 516.41
  L 532.67 518.62
  L 536.03 520.47
  L 539.65 521.89
  L 543.63 522.91
  L 547.29 523.51
  L 549.52 523.62
  L 556.38 523.17
  L 563.20 523.05
  L 569.98 523.27
  L 576.73 523.82
  Z
  M 444.72 581.78
  L 453.23 586.29
  L 461.91 590.19
  L 470.74 593.49
  L 479.74 596.17
  L 479.74 596.17
  L 479.74 596.17
  L 489.29 598.32
  L 499.02 599.80
  L 503.82 600.12
  L 510.00 600.09
  L 510.20 600.06
  L 510.70 599.59
  L 510.64 598.91
  L 508.28 595.39
  L 505.70 592.13
  L 502.90 589.14
  L 499.89 586.40
  L 499.89 586.40
  L 499.89 586.40
  L 499.89 586.40
  L 496.80 584.02
  L 493.51 581.89
  L 490.02 579.99
  L 486.34 578.33
  L 482.67 577.08
  L 479.07 576.39
  L 475.98 576.22
  L 472.67 576.44
  L 468.97 577.02
  L 463.41 578.19
  L 458.23 579.31
  L 451.37 580.53
  L 444.82 581.31
  L 444.39 581.46
  L 444.72 581.78
  Z"
/>
<path fill="#000000" d="
  M 287.05 721.40
  L 288.23 721.24
  L 288.81 721.34
  L 289.23 721.56
  L 289.50 721.95
  L 289.65 722.30
  L 290.53 724.25
  L 291.34 725.58
  L 292.29 726.60
  L 293.31 727.21
  L 293.32 727.21
  L 296.70 728.18
  L 300.02 728.36
  L 300.02 728.36
  L 302.42 727.98
  L 304.04 727.35
  L 305.16 726.40
  L 305.66 725.61
  L 305.97 724.70
  L 306.10 722.29
  L 305.77 720.76
  L 305.04 719.64
  L 305.04 719.64
  L 303.88 718.92
  L 300.67 718.03
  L 294.77 716.74
  L 290.18 715.33
  L 288.29 714.50
  L 286.92 713.70
  L 284.95 711.91
  L 283.45 709.77
  L 282.37 707.26
  L 281.82 704.60
  L 281.80 701.87
  L 282.33 699.24
  L 283.37 696.90
  L 284.92 694.88
  L 287.06 693.11
  L 289.52 691.75
  L 292.38 690.73
  L 295.42 690.14
  L 298.76 689.96
  L 302.09 690.22
  L 305.29 690.91
  L 308.26 692.01
  L 310.90 693.63
  L 312.88 695.71
  L 313.96 697.56
  L 314.67 699.60
  L 315.03 701.90
  L 314.99 704.33
  L 314.66 704.92
  L 313.99 705.07
  L 313.90 705.04
  L 310.50 704.19
  L 306.76 703.88
  L 305.93 703.59
  L 305.46 702.86
  L 305.01 701.46
  L 304.42 700.26
  L 303.68 699.28
  L 302.79 698.50
  L 302.79 698.50
  L 302.79 698.50
  L 302.79 698.50
  L 301.49 697.83
  L 299.96 697.49
  L 298.20 697.46
  L 296.22 697.76
  L 294.99 698.14
  L 293.90 698.73
  L 293.06 699.44
  L 292.43 700.33
  L 291.92 701.92
  L 291.94 704.19
  L 292.63 706.04
  L 292.63 706.04
  L 293.47 707.05
  L 294.62 707.87
  L 296.08 708.50
  L 297.84 708.93
  L 299.19 709.16
  L 305.00 710.31
  L 308.89 711.58
  L 310.49 712.37
  L 311.94 713.31
  L 313.13 714.35
  L 314.17 715.58
  L 315.01 716.97
  L 315.65 718.57
  L 316.06 720.29
  L 316.27 722.24
  L 316.24 724.36
  L 315.95 726.31
  L 315.40 728.10
  L 314.58 729.74
  L 314.58 729.74
  L 314.58 729.74
  L 314.58 729.74
  L 312.94 731.81
  L 310.75 733.55
  L 309.18 734.40
  L 307.46 735.06
  L 303.35 735.94
  L 298.44 736.22
  L 292.79 735.87
  L 289.37 735.12
  L 286.37 733.72
  L 283.98 731.76
  L 283.01 730.59
  L 282.20 729.28
  L 281.51 727.63
  L 281.07 725.83
  L 280.93 723.99
  L 281.05 722.03
  L 281.25 721.60
  L 281.69 721.46
  L 286.97 721.41
  L 287.05 721.40
  Z"
/>
<path fill="#000000" d="
  M 707.06 691.66
  L 707.33 691.01
  L 707.98 690.74
  L 724.37 690.77
  L 726.41 690.87
  L 728.44 691.17
  L 730.43 691.68
  L 732.35 692.37
  L 734.20 693.25
  L 735.96 694.30
  L 737.60 695.53
  L 739.12 696.90
  L 740.49 698.42
  L 741.71 700.07
  L 742.76 701.83
  L 743.63 703.68
  L 744.31 705.61
  L 744.81 707.59
  L 745.11 709.62
  L 745.20 711.66
  L 745.20 715.10
  L 745.09 717.15
  L 744.79 719.17
  L 744.29 721.16
  L 743.59 723.08
  L 742.72 724.93
  L 741.66 726.69
  L 740.44 728.33
  L 739.06 729.84
  L 737.54 731.21
  L 735.89 732.43
  L 734.13 733.48
  L 732.28 734.35
  L 730.35 735.04
  L 728.36 735.53
  L 726.34 735.83
  L 724.29 735.93
  L 707.90 735.90
  L 707.25 735.63
  L 706.98 734.98
  L 707.06 691.66
  Z
  M 718.36 727.47
  L 720.13 727.84
  L 721.85 728.01
  L 723.51 727.95
  L 725.13 727.69
  L 727.82 726.72
  L 730.36 725.10
  L 730.54 724.95
  L 731.70 723.77
  L 732.60 722.40
  L 733.30 720.82
  L 733.84 718.91
  L 734.16 716.82
  L 734.29 714.47
  L 733.98 708.71
  L 733.61 706.40
  L 733.06 704.53
  L 732.28 702.95
  L 731.22 701.59
  L 729.48 700.27
  L 727.21 699.32
  L 723.76 698.57
  L 720.59 698.41
  L 720.52 698.41
  L 719.18 698.17
  L 718.28 697.95
  L 718.19 697.94
  L 717.33 698.24
  L 716.96 699.09
  L 716.96 727.10
  L 717.05 727.41
  L 717.35 727.56
  L 717.72 727.53
  L 717.74 727.52
  L 718.03 727.44
  L 718.36 727.47
  Z"
/>
<path fill="#000000" d="
  M 362.78 699.00
  L 362.20 699.19
  L 362.01 699.77
  L 362.01 734.58
  L 361.92 735.20
  L 361.66 735.64
  L 361.66 735.64
  L 361.22 735.90
  L 360.60 735.99
  L 353.95 735.99
  L 353.20 735.84
  L 352.57 735.42
  L 352.15 734.79
  L 352.00 734.04
  L 352.00 700.01
  L 351.71 699.30
  L 351.00 699.00
  L 339.01 699.00
  L 338.32 698.71
  L 338.03 698.02
  L 338.03 692.03
  L 338.28 691.28
  L 339.04 691.03
  L 374.72 691.03
  L 375.29 691.11
  L 375.70 691.36
  L 375.70 691.36
  L 375.96 691.78
  L 376.04 692.37
  L 376.04 696.94
  L 375.88 697.73
  L 375.44 698.40
  L 374.77 698.84
  L 373.99 699.00
  L 373.99 699.00
  L 362.78 699.00
  Z"
/>
<path fill="#000000" d="
  M 407.80 726.46
  L 407.07 726.50
  L 406.58 727.03
  L 403.56 735.04
  L 403.29 735.44
  L 402.86 735.65
  L 402.07 735.82
  L 399.25 736.07
  L 395.58 735.87
  L 394.77 735.80
  L 393.96 735.62
  L 393.40 735.22
  L 393.40 735.22
  L 393.40 735.22
  L 393.09 734.60
  L 393.02 733.77
  L 393.10 733.40
  L 408.87 691.97
  L 409.44 691.25
  L 410.31 690.98
  L 419.96 690.98
  L 420.94 691.29
  L 421.57 692.10
  L 437.16 733.82
  L 437.13 734.54
  L 436.61 735.01
  L 436.59 735.02
  L 434.42 735.62
  L 432.28 735.98
  L 430.18 736.10
  L 428.10 735.98
  L 427.12 735.58
  L 426.49 734.72
  L 423.64 727.10
  L 423.30 726.58
  L 422.78 726.30
  L 421.23 726.05
  L 419.21 726.33
  L 418.79 726.41
  L 418.25 726.39
  L 414.46 726.08
  L 410.83 726.50
  L 410.83 726.50
  L 410.14 726.67
  L 409.23 726.79
  L 407.82 726.47
  L 407.80 726.46
  Z
  M 419.75 719.06
  L 420.54 718.78
  L 420.53 717.96
  L 416.01 705.30
  L 415.56 704.34
  L 415.10 704.03
  L 414.65 704.34
  L 414.19 705.30
  L 409.98 716.98
  L 409.89 717.65
  L 410.10 718.29
  L 410.55 718.78
  L 411.17 719.04
  L 411.44 719.06
  L 419.75 719.06
  Z"
/>
<path fill="#000000" d="
  M 490.50 715.15
  L 491.66 715.95
  L 492.47 716.47
  L 494.45 719.03
  L 495.23 720.29
  L 496.53 725.59
  L 497.05 730.09
  L 497.24 732.41
  L 497.63 734.48
  L 497.66 734.62
  L 497.62 735.10
  L 497.38 735.52
  L 497.00 735.80
  L 496.53 735.90
  L 488.78 735.90
  L 488.15 735.78
  L 487.62 735.42
  L 487.26 734.89
  L 487.13 734.26
  L 486.89 729.97
  L 486.31 725.49
  L 485.92 723.76
  L 485.36 722.30
  L 484.61 721.04
  L 483.70 720.04
  L 481.95 718.91
  L 479.70 718.22
  L 476.83 717.93
  L 472.66 717.98
  L 471.90 718.00
  L 471.25 718.29
  L 470.98 718.95
  L 470.98 734.06
  L 470.89 734.71
  L 470.62 735.21
  L 470.62 735.21
  L 470.16 735.55
  L 469.52 735.73
  L 467.00 735.97
  L 464.69 735.95
  L 462.59 735.67
  L 460.70 735.14
  L 460.22 734.80
  L 460.06 734.23
  L 460.06 691.80
  L 460.28 691.27
  L 460.80 691.05
  L 481.26 690.93
  L 483.84 691.03
  L 486.22 691.35
  L 488.41 691.89
  L 490.41 692.65
  L 492.58 693.97
  L 494.37 695.73
  L 495.80 697.93
  L 496.74 700.38
  L 497.17 702.97
  L 497.05 705.59
  L 496.40 708.00
  L 495.19 710.23
  L 494.13 711.48
  L 492.85 712.60
  L 490.47 714.38
  L 490.26 714.77
  L 490.50 715.15
  Z
  M 470.95 699.17
  L 471.01 709.83
  L 471.36 710.66
  L 472.18 710.99
  L 479.45 710.96
  L 480.83 710.83
  L 482.15 710.48
  L 483.37 709.91
  L 484.44 709.15
  L 485.31 708.22
  L 485.96 707.17
  L 486.35 706.03
  L 486.48 704.84
  L 486.48 704.00
  L 486.34 702.81
  L 485.93 701.68
  L 485.27 700.63
  L 484.39 699.71
  L 483.31 698.96
  L 482.09 698.41
  L 480.76 698.07
  L 479.39 697.96
  L 472.12 697.99
  L 471.29 698.34
  L 470.95 699.17
  Z"
/>
<path fill="#000000" d="
  M 533.04 727.02
  L 550.29 727.02
  L 551.48 727.19
  L 552.34 727.70
  L 552.34 727.70
  L 552.34 727.70
  L 552.85 728.56
  L 553.02 729.75
  L 553.02 733.06
  L 552.84 734.32
  L 552.30 735.22
  L 551.40 735.76
  L 550.14 735.94
  L 523.98 735.94
  L 523.23 735.79
  L 522.60 735.37
  L 522.18 734.74
  L 522.03 734.00
  L 522.03 692.11
  L 522.30 691.31
  L 523.10 691.04
  L 530.27 691.04
  L 531.24 691.18
  L 531.92 691.60
  L 531.92 691.60
  L 531.92 691.60
  L 532.30 692.30
  L 532.38 693.28
  L 532.05 701.53
  L 532.01 709.45
  L 532.28 717.02
  L 532.84 724.25
  L 532.54 726.36
  L 532.57 726.85
  L 533.04 727.02
  Z"
/>
<path fill="#000000" d="
  M 604.79 726.32
  L 602.64 726.01
  L 600.44 725.91
  L 598.18 726.02
  L 595.87 726.35
  L 592.63 726.61
  L 589.29 726.93
  L 588.67 727.25
  L 588.28 727.82
  L 586.07 733.67
  L 585.55 734.65
  L 584.83 735.35
  L 583.93 735.76
  L 582.84 735.90
  L 577.01 735.90
  L 576.02 735.76
  L 575.44 735.34
  L 575.44 735.34
  L 575.44 735.34
  L 575.25 734.65
  L 575.47 733.67
  L 591.37 691.57
  L 591.71 691.13
  L 592.23 690.97
  L 601.82 690.97
  L 602.85 691.29
  L 603.51 692.15
  L 619.32 734.48
  L 619.39 734.97
  L 619.25 735.44
  L 618.92 735.81
  L 618.46 736.00
  L 618.46 736.00
  L 618.26 736.02
  L 610.96 736.02
  L 610.08 735.91
  L 609.36 735.57
  L 609.36 735.57
  L 609.36 735.57
  L 608.79 735.01
  L 608.38 734.23
  L 605.71 727.10
  L 605.36 726.58
  L 604.79 726.32
  Z
  M 592.52 718.90
  L 600.73 719.01
  L 601.00 718.99
  L 601.61 718.74
  L 602.07 718.26
  L 602.28 717.63
  L 602.20 716.97
  L 598.19 705.38
  L 597.76 704.42
  L 597.31 704.10
  L 597.31 704.10
  L 597.31 704.10
  L 596.86 704.41
  L 596.40 705.35
  L 591.77 717.80
  L 591.75 718.61
  L 592.52 718.90
  Z"
/>
<path fill="#000000" d="
  M 668.94 717.34
  L 669.41 718.02
  L 669.75 718.20
  L 669.75 718.20
  L 669.95 717.88
  L 670.02 717.05
  L 670.02 692.04
  L 670.27 691.30
  L 671.02 691.05
  L 679.04 691.05
  L 679.76 691.29
  L 680.00 692.02
  L 680.00 733.96
  L 679.85 734.73
  L 679.41 735.39
  L 678.75 735.83
  L 677.98 735.98
  L 670.17 735.98
  L 669.23 735.73
  L 668.54 735.04
  L 653.95 709.77
  L 653.44 709.26
  L 653.20 709.94
  L 653.01 712.50
  L 652.96 733.52
  L 652.80 734.59
  L 652.34 735.35
  L 652.34 735.35
  L 651.58 735.81
  L 650.51 735.96
  L 645.47 735.96
  L 644.41 735.81
  L 643.64 735.35
  L 643.64 735.35
  L 643.18 734.59
  L 643.03 733.51
  L 643.03 691.84
  L 643.28 691.25
  L 643.87 691.00
  L 653.24 691.00
  L 653.67 691.11
  L 653.98 691.42
  L 668.94 717.34
  Z"
/>
</svg>
